<mxfile host="app.diagrams.net" modified="2021-10-31T13:03:59.025Z" agent="5.0 (Windows NT 10.0; Win64; x64) AppleWebKit/537.36 (KHTML, like Gecko) Chrome/92.0.4515.159 Safari/537.36" etag="CCGXAuKbHSxg95h9EaJ3" version="15.6.2" type="github">
  <diagram id="4uqwMY5h5Y34JI4Zli0u" name="Page-1">
    <mxGraphModel dx="1730" dy="912" grid="1" gridSize="10" guides="1" tooltips="1" connect="1" arrows="1" fold="1" page="1" pageScale="1" pageWidth="1400" pageHeight="300" math="1" shadow="0">
      <root>
        <mxCell id="0" />
        <mxCell id="1" parent="0" />
        <mxCell id="vC1LbrB0vZefw4HE9gXH-37" value="" style="points=[[0.25,0,0],[0.5,0,0],[0.75,0,0],[1,0.25,0],[1,0.5,0],[1,0.75,0],[0.75,1,0],[0.5,1,0],[0.25,1,0],[0,0.75,0],[0,0.5,0],[0,0.25,0]];rounded=1;arcSize=10;dashed=1;strokeColor=#000000;fillColor=none;gradientColor=none;dashPattern=8 3 1 3;strokeWidth=2;fontSize=18;" vertex="1" parent="1">
          <mxGeometry x="282" y="50" width="711" height="200" as="geometry" />
        </mxCell>
        <mxCell id="vC1LbrB0vZefw4HE9gXH-2" value="&lt;font style=&quot;font-size: 18px&quot; face=&quot;Times New Roman&quot;&gt;Conv1D&lt;/font&gt;" style="rounded=0;whiteSpace=wrap;html=1;" vertex="1" parent="1">
          <mxGeometry x="303" y="130" width="90" height="40" as="geometry" />
        </mxCell>
        <mxCell id="vC1LbrB0vZefw4HE9gXH-3" value="&lt;font style=&quot;font-size: 18px&quot; face=&quot;Times New Roman&quot;&gt;Conv1D&lt;/font&gt;" style="rounded=0;whiteSpace=wrap;html=1;" vertex="1" parent="1">
          <mxGeometry x="453" y="130" width="90" height="40" as="geometry" />
        </mxCell>
        <mxCell id="vC1LbrB0vZefw4HE9gXH-4" value="&lt;font style=&quot;font-size: 18px&quot; face=&quot;Times New Roman&quot;&gt;Conv1D&lt;/font&gt;" style="rounded=0;whiteSpace=wrap;html=1;" vertex="1" parent="1">
          <mxGeometry x="583" y="130" width="90" height="40" as="geometry" />
        </mxCell>
        <mxCell id="vC1LbrB0vZefw4HE9gXH-5" value="&lt;span style=&quot;background-color: rgb(255 , 255 , 255)&quot;&gt;&lt;font style=&quot;font-size: 18px&quot; face=&quot;Times New Roman&quot;&gt;Shrinkage&lt;/font&gt;&lt;/span&gt;" style="rounded=0;whiteSpace=wrap;html=1;" vertex="1" parent="1">
          <mxGeometry x="733" y="80" width="90" height="40" as="geometry" />
        </mxCell>
        <mxCell id="vC1LbrB0vZefw4HE9gXH-7" value="&lt;font style=&quot;font-size: 18px&quot; face=&quot;Times New Roman&quot;&gt;LSTM&lt;/font&gt;" style="ellipse;whiteSpace=wrap;html=1;" vertex="1" parent="1">
          <mxGeometry x="1033" y="120" width="90" height="60" as="geometry" />
        </mxCell>
        <mxCell id="vC1LbrB0vZefw4HE9gXH-8" value="&lt;font style=&quot;font-size: 18px&quot; face=&quot;Times New Roman&quot;&gt;Dense&lt;/font&gt;" style="rounded=0;whiteSpace=wrap;html=1;" vertex="1" parent="1">
          <mxGeometry x="1158" y="130" width="90" height="40" as="geometry" />
        </mxCell>
        <mxCell id="vC1LbrB0vZefw4HE9gXH-9" value="" style="endArrow=classic;html=1;rounded=0;startArrow=none;" edge="1" parent="1">
          <mxGeometry width="50" height="50" relative="1" as="geometry">
            <mxPoint x="112" y="150" as="sourcePoint" />
            <mxPoint x="152" y="150" as="targetPoint" />
          </mxGeometry>
        </mxCell>
        <mxCell id="vC1LbrB0vZefw4HE9gXH-10" value="" style="endArrow=classic;html=1;rounded=0;entryX=0;entryY=0.5;entryDx=0;entryDy=0;" edge="1" parent="1" target="vC1LbrB0vZefw4HE9gXH-3">
          <mxGeometry width="50" height="50" relative="1" as="geometry">
            <mxPoint x="393" y="150" as="sourcePoint" />
            <mxPoint x="423" y="100" as="targetPoint" />
          </mxGeometry>
        </mxCell>
        <mxCell id="vC1LbrB0vZefw4HE9gXH-11" value="" style="endArrow=classic;html=1;rounded=0;entryX=0;entryY=0.5;entryDx=0;entryDy=0;" edge="1" parent="1" target="vC1LbrB0vZefw4HE9gXH-4">
          <mxGeometry width="50" height="50" relative="1" as="geometry">
            <mxPoint x="543" y="150" as="sourcePoint" />
            <mxPoint x="583" y="100" as="targetPoint" />
          </mxGeometry>
        </mxCell>
        <mxCell id="vC1LbrB0vZefw4HE9gXH-12" value="" style="endArrow=classic;html=1;rounded=0;exitX=1;exitY=0.5;exitDx=0;exitDy=0;entryX=0;entryY=0.5;entryDx=0;entryDy=0;" edge="1" parent="1" source="vC1LbrB0vZefw4HE9gXH-4" target="vC1LbrB0vZefw4HE9gXH-5">
          <mxGeometry width="50" height="50" relative="1" as="geometry">
            <mxPoint x="693" y="150" as="sourcePoint" />
            <mxPoint x="723" y="80" as="targetPoint" />
          </mxGeometry>
        </mxCell>
        <mxCell id="vC1LbrB0vZefw4HE9gXH-14" value="" style="endArrow=classic;html=1;rounded=0;exitX=1;exitY=0.5;exitDx=0;exitDy=0;" edge="1" parent="1" source="vC1LbrB0vZefw4HE9gXH-4">
          <mxGeometry width="50" height="50" relative="1" as="geometry">
            <mxPoint x="693" y="150" as="sourcePoint" />
            <mxPoint x="883" y="150" as="targetPoint" />
          </mxGeometry>
        </mxCell>
        <mxCell id="vC1LbrB0vZefw4HE9gXH-15" value="" style="endArrow=classic;html=1;rounded=0;exitX=1;exitY=0.5;exitDx=0;exitDy=0;" edge="1" parent="1" source="vC1LbrB0vZefw4HE9gXH-5">
          <mxGeometry width="50" height="50" relative="1" as="geometry">
            <mxPoint x="873" y="70" as="sourcePoint" />
            <mxPoint x="883" y="140" as="targetPoint" />
          </mxGeometry>
        </mxCell>
        <mxCell id="vC1LbrB0vZefw4HE9gXH-16" value="" style="ellipse;whiteSpace=wrap;html=1;aspect=fixed;" vertex="1" parent="1">
          <mxGeometry x="883" y="135" width="30" height="30" as="geometry" />
        </mxCell>
        <mxCell id="vC1LbrB0vZefw4HE9gXH-20" value="" style="edgeStyle=elbowEdgeStyle;elbow=vertical;endArrow=classic;html=1;rounded=0;entryX=0.5;entryY=1;entryDx=0;entryDy=0;" edge="1" parent="1">
          <mxGeometry width="50" height="50" relative="1" as="geometry">
            <mxPoint x="423" y="150" as="sourcePoint" />
            <mxPoint x="959" y="165" as="targetPoint" />
            <Array as="points">
              <mxPoint x="693" y="220" />
            </Array>
          </mxGeometry>
        </mxCell>
        <mxCell id="vC1LbrB0vZefw4HE9gXH-27" value="" style="endArrow=classic;html=1;rounded=0;entryX=0;entryY=0.5;entryDx=0;entryDy=0;" edge="1" parent="1">
          <mxGeometry width="50" height="50" relative="1" as="geometry">
            <mxPoint x="914" y="150" as="sourcePoint" />
            <mxPoint x="944" y="150" as="targetPoint" />
          </mxGeometry>
        </mxCell>
        <mxCell id="vC1LbrB0vZefw4HE9gXH-28" value="" style="endArrow=classic;html=1;rounded=0;" edge="1" parent="1">
          <mxGeometry width="50" height="50" relative="1" as="geometry">
            <mxPoint x="975" y="150" as="sourcePoint" />
            <mxPoint x="1033" y="150" as="targetPoint" />
          </mxGeometry>
        </mxCell>
        <mxCell id="vC1LbrB0vZefw4HE9gXH-29" value="" style="endArrow=classic;html=1;rounded=0;entryX=0;entryY=0.5;entryDx=0;entryDy=0;" edge="1" parent="1">
          <mxGeometry width="50" height="50" relative="1" as="geometry">
            <mxPoint x="1123" y="150" as="sourcePoint" />
            <mxPoint x="1158" y="150" as="targetPoint" />
          </mxGeometry>
        </mxCell>
        <mxCell id="vC1LbrB0vZefw4HE9gXH-30" value="" style="endArrow=classic;html=1;rounded=0;" edge="1" parent="1">
          <mxGeometry width="50" height="50" relative="1" as="geometry">
            <mxPoint x="1248" y="150" as="sourcePoint" />
            <mxPoint x="1288" y="150" as="targetPoint" />
          </mxGeometry>
        </mxCell>
        <mxCell id="vC1LbrB0vZefw4HE9gXH-31" value="&lt;font style=&quot;font-size: 18px&quot; face=&quot;Times New Roman&quot;&gt;Output&lt;/font&gt;" style="rounded=1;whiteSpace=wrap;html=1;" vertex="1" parent="1">
          <mxGeometry x="1288" y="130" width="90" height="40" as="geometry" />
        </mxCell>
        <mxCell id="vC1LbrB0vZefw4HE9gXH-39" value="$$\times3$$&amp;nbsp;" style="text;html=1;strokeColor=none;fillColor=none;align=center;verticalAlign=middle;whiteSpace=wrap;rounded=0;fontSize=18;" vertex="1" parent="1">
          <mxGeometry x="923" y="70" width="60" height="30" as="geometry" />
        </mxCell>
        <mxCell id="vC1LbrB0vZefw4HE9gXH-40" value="&lt;font style=&quot;font-size: 18px&quot; face=&quot;Times New Roman&quot;&gt;CEEMDAN&lt;/font&gt;" style="rounded=0;whiteSpace=wrap;html=1;fontSize=18;" vertex="1" parent="1">
          <mxGeometry x="152" y="130" width="111" height="40" as="geometry" />
        </mxCell>
        <mxCell id="vC1LbrB0vZefw4HE9gXH-41" value="" style="endArrow=classic;html=1;rounded=0;fontSize=18;entryX=0;entryY=0.5;entryDx=0;entryDy=0;" edge="1" parent="1" target="vC1LbrB0vZefw4HE9gXH-2">
          <mxGeometry width="50" height="50" relative="1" as="geometry">
            <mxPoint x="263" y="150" as="sourcePoint" />
            <mxPoint x="313" y="100" as="targetPoint" />
          </mxGeometry>
        </mxCell>
        <mxCell id="vC1LbrB0vZefw4HE9gXH-42" value="&lt;span&gt;&lt;font face=&quot;Times New Roman&quot;&gt;Original data&lt;/font&gt;&lt;/span&gt;" style="rounded=1;whiteSpace=wrap;html=1;fontSize=18;" vertex="1" parent="1">
          <mxGeometry x="22" y="130" width="90" height="40" as="geometry" />
        </mxCell>
        <mxCell id="vC1LbrB0vZefw4HE9gXH-46" value="" style="shape=orEllipse;perimeter=ellipsePerimeter;whiteSpace=wrap;html=1;backgroundOutline=1;fontFamily=Times New Roman;fontSize=18;" vertex="1" parent="1">
          <mxGeometry x="944" y="135" width="30" height="30" as="geometry" />
        </mxCell>
        <mxCell id="vC1LbrB0vZefw4HE9gXH-62" value="" style="endArrow=none;html=1;rounded=0;fontFamily=Times New Roman;fontSize=18;" edge="1" parent="1">
          <mxGeometry width="50" height="50" relative="1" as="geometry">
            <mxPoint x="888" y="160" as="sourcePoint" />
            <mxPoint x="908" y="140" as="targetPoint" />
          </mxGeometry>
        </mxCell>
      </root>
    </mxGraphModel>
  </diagram>
</mxfile>
